[Header]
FileType HTR
DataType HTRS
FileVersion 1
NumSegments 64
NumFrames 3
DataFrameRate 30
EulerRotationOrder ZYX
CalibrationUnits mm
RotationUnits Degrees
GlobalAxisofGravity Y
BoneLengthAxis Y
ScaleFactor 1.0
[SegmentNames&Hierarchy]
Hips	GLOBAL
Spine	Hips
Spine1	Spine
Spine2	Spine1
Neck	Spine2
Head	Neck
LeftEye	Head
RightEye	Head
LeftShoulder	Spine2
LeftArm	LeftShoulder
LeftForeArm	LeftArm
LeftHand	LeftForeArm
LeftHandThumb1	LeftHand
LeftHandThumb2	LeftHandThumb1
LeftHandThumb3	LeftHandThumb2
LeftHandThumb4	LeftHandThumb3
LeftHandIndex1	LeftHand
LeftHandIndex2	LeftHandIndex1
LeftHandIndex3	LeftHandIndex2
LeftHandIndex4	LeftHandIndex3
LeftHandMiddle1	LeftHand
LeftHandMiddle2	LeftHandMiddle1
LeftHandMiddle3	LeftHandMiddle2
LeftHandMiddle4	LeftHandMiddle3
LeftHandRing1	LeftHand
LeftHandRing2	LeftHandRing1
LeftHandRing3	LeftHandRing2
LeftHandRing4	LeftHandRing3
LeftHandPinky1	LeftHand
LeftHandPinky2	LeftHandPinky1
LeftHandPinky3	LeftHandPinky2
LeftHandPinky4	LeftHandPinky3
RightShoulder	Spine2
RightArm	RightShoulder
RightForeArm	RightArm
RightHand	RightForeArm
RightHandPinky1	RightHand
RightHandPinky2	RightHandPinky1
RightHandPinky3	RightHandPinky2
RightHandPinky4	RightHandPinky3
RightHandRing1	RightHand
RightHandRing2	RightHandRing1
RightHandRing3	RightHandRing2
RightHandRing4	RightHandRing3
RightHandMiddle1	RightHand
RightHandMiddle2	RightHandMiddle1
RightHandMiddle3	RightHandMiddle2
RightHandMiddle4	RightHandMiddle3
RightHandIndex1	RightHand
RightHandIndex2	RightHandIndex1
RightHandIndex3	RightHandIndex2
RightHandIndex4	RightHandIndex3
RightHandThumb1	RightHand
RightHandThumb2	RightHandThumb1
RightHandThumb3	RightHandThumb2
RightHandThumb4	RightHandThumb3
LeftUpLeg	Hips
LeftLeg	LeftUpLeg
LeftFoot	LeftLeg
LeftToeBase	LeftFoot
RightUpLeg	Hips
RightLeg	RightUpLeg
RightFoot	RightLeg
RightToeBase	RightFoot
[BasePosition]
Hips	0	0	0	0	0	0	1
Spine	0	0	0	0	0	0	1
Spine1	0	0	0	0	0	0	1
Spine2	0	0	0	0	0	0	1
Neck	0	0	0	0	0	0	1
Head	0	0	0	0	0	0	1
LeftEye	0	0	0	0	0	0	1
RightEye	0	0	0	0	0	0	1
LeftShoulder	0	0	0	0	0	0	1
LeftArm	0	0	0	0	0	0	1
LeftForeArm	0	0	0	0	0	0	1
LeftHand	0	0	0	0	0	0	1
LeftHandThumb1	0	0	0	0	0	0	1
LeftHandThumb2	0	0	0	0	0	0	1
LeftHandThumb3	0	0	0	0	0	0	1
LeftHandThumb4	0	0	0	0	0	0	1
LeftHandIndex1	0	0	0	0	0	0	1
LeftHandIndex2	0	0	0	0	0	0	1
LeftHandIndex3	0	0	0	0	0	0	1
LeftHandIndex4	0	0	0	0	0	0	1
LeftHandMiddle1	0	0	0	0	0	0	1
LeftHandMiddle2	0	0	0	0	0	0	1
LeftHandMiddle3	0	0	0	0	0	0	1
LeftHandMiddle4	0	0	0	0	0	0	1
LeftHandRing1	0	0	0	0	0	0	1
LeftHandRing2	0	0	0	0	0	0	1
LeftHandRing3	0	0	0	0	0	0	1
LeftHandRing4	0	0	0	0	0	0	1
LeftHandPinky1	0	0	0	0	0	0	1
LeftHandPinky2	0	0	0	0	0	0	1
LeftHandPinky3	0	0	0	0	0	0	1
LeftHandPinky4	0	0	0	0	0	0	1
RightShoulder	0	0	0	0	0	0	1
RightArm	0	0	0	0	0	0	1
RightForeArm	0	0	0	0	0	0	1
RightHand	0	0	0	0	0	0	1
RightHandPinky1	0	0	0	0	0	0	1
RightHandPinky2	0	0	0	0	0	0	1
RightHandPinky3	0	0	0	0	0	0	1
RightHandPinky4	0	0	0	0	0	0	1
RightHandRing1	0	0	0	0	0	0	1
RightHandRing2	0	0	0	0	0	0	1
RightHandRing3	0	0	0	0	0	0	1
RightHandRing4	0	0	0	0	0	0	1
RightHandMiddle1	0	0	0	0	0	0	1
RightHandMiddle2	0	0	0	0	0	0	1
RightHandMiddle3	0	0	0	0	0	0	1
RightHandMiddle4	0	0	0	0	0	0	1
RightHandIndex1	0	0	0	0	0	0	1
RightHandIndex2	0	0	0	0	0	0	1
RightHandIndex3	0	0	0	0	0	0	1
RightHandIndex4	0	0	0	0	0	0	1
RightHandThumb1	0	0	0	0	0	0	1
RightHandThumb2	0	0	0	0	0	0	1
RightHandThumb3	0	0	0	0	0	0	1
RightHandThumb4	0	0	0	0	0	0	1
LeftUpLeg	0	0	0	0	0	0	1
LeftLeg	0	0	0	0	0	0	1
LeftFoot	0	0	0	0	0	0	1
LeftToeBase	0	0	0	0	0	0	1
RightUpLeg	0	0	0	0	0	0	1
RightLeg	0	0	0	0	0	0	1
RightFoot	0	0	0	0	0	0	1
RightToeBase	0	0	0	0	0	0	1
[Hips]
21	-26.72260094	1029.880127	-70.01122284	-12.04212189	60.6143074	-8.509120941	1.0
22	-16.57191277	1029.167236	-54.62682724	-15.19693947	67.14910889	-11.63820839	1.0
23	-6.485509396	1028.034058	-39.80867386	-18.43819237	71.97203064	-14.86809635	1.0
[Spine]
21	0	101.8159943	1.315000057	4.251808643	1.769392848	2.158578873	1.0
22	0	101.8159943	1.315000057	4.168882847	1.374840856	1.802467942	1.0
23	0	101.8159943	1.315000057	3.999946117	1.04796958	1.464540482	1.0
[Spine1]
21	0	100.8349991	-10.00800037	1.587792754	1.388965368	4.009181023	1.0
22	0	100.8349991	-10.00800037	1.435581088	0.7538762093	3.504868031	1.0
23	0	100.8349991	-10.00800037	1.308505416	0.302641958	3.016427279	1.0
[Spine2]
21	0	91	-13.73399925	1.582949638	1.122588515	1.228644252	1.0
22	0	91	-13.73399925	1.435341835	0.5462759137	1.365495324	1.0
23	0	91	-13.73399925	1.304806948	0.1656267792	1.519033432	1.0
[Neck]
21	0	166.7169952	-25.16200066	6.323049068	2.907623768	0.02480833791	1.0
22	0	166.7169952	-25.16200066	6.000845909	2.023135662	0.299348563	1.0
23	0	166.7169952	-25.16200066	5.774906158	1.258393526	0.4768127203	1.0
[Head]
21	0	96.17900085	16.84999847	-5.304138184	14.03135014	-6.139683247	1.0
22	0	96.17900085	16.84999847	-5.856936455	11.10386467	-4.667534351	1.0
23	0	96.17900085	16.84999847	-6.378215313	8.32027626	-3.329883099	1.0
[LeftEye]
21	30.6760006	64.09500122	92.83599854	0	0	0	1.0
22	30.6760006	64.09500122	92.83599854	0	0	0	1.0
23	30.6760006	64.09500122	92.83599854	0	0	0	1.0
[RightEye]
21	-30.6760006	64.09500122	92.83499908	0	0	0	1.0
22	-30.6760006	64.09500122	92.83499908	0	0	0	1.0
23	-30.6760006	64.09500122	92.83499908	0	0	0	1.0
[LeftShoulder]
21	45.70400238	109.4599991	-26.28000069	7.187433243	-4.56728363	-21.44941902	1.0
22	45.70400238	109.4599991	-26.28000069	7.026167393	-5.523992062	-19.9543705	1.0
23	45.70400238	109.4599991	-26.28000069	6.74145937	-7.062479019	-18.19452858	1.0
[LeftArm]
21	105.923996	-5.24600029	-22.32099915	24.99199486	0.02098934352	-61.6358757	1.0
22	105.923996	-5.24600029	-22.32099915	24.8506794	-0.6347388029	-63.04560852	1.0
23	105.923996	-5.24600029	-22.32099915	24.17362785	-1.048894763	-64.77468109	1.0
[LeftForeArm]
21	278.414978	-0.0009999999311	0	1.765160505e-06	-15.98762989	-0.0002054689394	1.0
22	278.414978	-0.0009999999311	0	2.486738367e-06	-13.3724308	-0.0002149737556	1.0
23	278.414978	-0.0009999999311	0	2.334587634e-07	-10.55874443	-0.0002042450215	1.0
[LeftHand]
21	283.2879944	0	0	-36.77606964	-4.452340126	15.24146748	1.0
22	283.2879944	0	0	-38.13145828	-3.872193098	13.32232475	1.0
23	283.2879944	0	0	-38.42715454	-3.276492119	10.24038887	1.0
[LeftHandThumb1]
21	24.6609993	-15.75	26.8239994	-0.4889881611	2.201389551	4.818526268	1.0
22	24.6609993	-15.75	26.8239994	-0.4889881611	2.201389551	4.818526268	1.0
23	24.6609993	-15.75	26.8239994	-0.4889881611	2.201389551	4.818526268	1.0
[LeftHandThumb2]
21	32.29800034	-18.64699936	18.64699936	18.52788544	17.47868156	21.85512733	1.0
22	32.29800034	-18.64699936	18.64699936	18.58385849	18.04526138	22.08007431	1.0
23	32.29800034	-18.64699936	18.64699936	18.55636978	18.47579384	22.23159027	1.0
[LeftHandThumb3]
21	26.52600098	-15.31499958	15.31499958	-13.05657959	5.988419056	7.629725456	1.0
22	26.52600098	-15.31499958	15.31499958	-13.05289745	5.990324497	7.687077999	1.0
23	26.52600098	-15.31499958	15.31499958	-13.05685043	6.030626297	7.722603798	1.0
[LeftHandThumb4]
21	19.54599953	-11.28499985	11.28499985	0	0	0	1.0
22	19.54599953	-11.28499985	11.28499985	0	0	0	1.0
23	19.54599953	-11.28499985	11.28499985	0	0	0	1.0
[LeftHandIndex1]
21	91.09299469	-5.170999527	22.60099792	0.1164224669	-1.099476814	-7.237863064	1.0
22	91.09299469	-5.170999527	22.60099792	0.1115175039	-1.110801458	-7.223671436	1.0
23	91.09299469	-5.170999527	22.60099792	0.1077170521	-1.131915927	-7.178683281	1.0
[LeftHandIndex2]
21	36.76399994	0	0	-0.2668952048	1.74580133	-17.38308716	1.0
22	36.76399994	0	0	-0.2669125199	1.745813727	-17.38310242	1.0
23	36.76399994	0	0	-0.2669013441	1.745825171	-17.38310814	1.0
[LeftHandIndex3]
21	28.83100128	0	0	-0.05752364919	0.8180156946	-8.04500103	1.0
22	28.83100128	0	0	-0.05752857774	0.8180143833	-8.04500103	1.0
23	28.83100128	0	0	-0.05752862245	0.8179993629	-8.044993401	1.0
[LeftHandIndex4]
21	23.92700005	0	0	0	0	0	1.0
22	23.92700005	0	0	0	0	0	1.0
23	23.92700005	0	0	0	0	0	1.0
[LeftHandMiddle1]
21	95.33399963	0	0	-0.7665325999	2.759095192	-15.29704952	1.0
22	95.33399963	0	0	-0.7663983107	2.678261995	-15.29720402	1.0
23	95.33399963	0	0	-0.7651334405	2.616626263	-15.27985954	1.0
[LeftHandMiddle2]
21	36.98199844	0	0	-0.2656013072	1.741645694	-17.34009361	1.0
22	36.98199844	0	0	-0.2655647695	1.741547585	-17.33919907	1.0
23	36.98199844	0	0	-0.2656267881	1.741718173	-17.34099197	1.0
[LeftHandMiddle3]
21	29.50900078	0	0	-0.2970469594	1.839293003	-18.34683418	1.0
22	29.50900078	0	0	-0.2970492542	1.839269996	-18.34653664	1.0
23	29.50900078	0	0	-0.2971198559	1.839505196	-18.34885597	1.0
[LeftHandMiddle4]
21	28.3390007	0	0	0	0	0	1.0
22	28.3390007	0	0	0	0	0	1.0
23	28.3390007	0	0	0	0	0	1.0
[LeftHandRing1]
21	91.04499817	-0.4390000105	-18.65100098	-1.170084596	3.220617056	-20.97276497	1.0
22	91.04499817	-0.4390000105	-18.65100098	-1.17040813	3.248558521	-20.97651291	1.0
23	91.04499817	-0.4390000105	-18.65100098	-1.170581102	3.250186205	-20.9787426	1.0
[LeftHandRing2]
21	31.54000092	0	0	-0.3817969561	2.077320099	-20.82633781	1.0
22	31.54000092	0	0	-0.3825549781	2.079329491	-20.8475399	1.0
23	31.54000092	0	0	-0.3829932511	2.080473661	-20.85948753	1.0
[LeftHandRing3]
21	29.37700081	0	0	-0.2791410387	1.784440756	-17.78055191	1.0
22	29.37700081	0	0	-0.2798071206	1.786484957	-17.80161476	1.0
23	29.37700081	0	0	-0.2801783085	1.787651777	-17.81355667	1.0
[LeftHandRing4]
21	26.47500038	0	0	0	0	0	1.0
22	26.47500038	0	0	0	0	0	1.0
23	26.47500038	0	0	0	0	0	1.0
[LeftHandPinky1]
21	80.77799988	-4.887000084	-38.06099701	-1.640489936	5.775947571	-26.70504761	1.0
22	80.77799988	-4.887000084	-38.06099701	-1.65024507	5.694709301	-26.79162216	1.0
23	80.77799988	-4.887000084	-38.06099701	-1.658301711	5.634935379	-26.84968948	1.0
[LeftHandPinky2]
21	36	0	0	-0.2663024664	1.743878365	-17.36329842	1.0
22	36	0	0	-0.2666941583	1.745138049	-17.37621307	1.0
23	36	0	0	-0.2668661475	1.745694041	-17.38189316	1.0
[LeftHandPinky3]
21	21.14200211	0	0	-0.2396634072	1.656351566	-16.46547318	1.0
22	21.14200211	0	0	-0.2400243878	1.657547951	-16.47793579	1.0
23	21.14200211	0	0	-0.24018161	1.658076763	-16.48324203	1.0
[LeftHandPinky4]
21	19.75699997	0	0	0	0	0	1.0
22	19.75699997	0	0	0	0	0	1.0
23	19.75699997	0	0	0	0	0	1.0
[RightShoulder]
21	-45.70000076	109.4620056	0	5.057855129	13.95342827	16.02836037	1.0
22	-45.70000076	109.4620056	0	5.082823753	14.03338814	16.07861328	1.0
23	-45.70000076	109.4620056	0	5.100623608	14.09820652	16.07722473	1.0
[RightArm]
21	-105.9280014	-5.248000145	-22.32099915	26.48060799	-3.535838842	54.02571487	1.0
22	-105.9280014	-5.248000145	-22.32099915	27.20912361	-1.716694832	56.32112885	1.0
23	-105.9280014	-5.248000145	-22.32099915	27.9459362	-0.1322156936	58.54469681	1.0
[RightForeArm]
21	-278.414978	0	0	-1.310320749e-05	11.47536087	-3.078192321e-06	1.0
22	-278.414978	0	0	2.519755071e-06	10.5258913	9.594496987e-06	1.0
23	-278.414978	0	0	8.7620665e-06	9.490121841	8.016290849e-06	1.0
[RightHand]
21	-283.2879944	0	0.0009999999311	-24.23795128	-6.522056103	7.002306461	1.0
22	-283.2879944	0	0.0009999999311	-22.78206635	-4.332524776	7.058211327	1.0
23	-283.2879944	0	0.0009999999311	-21.4659729	-2.254509926	7.11928463	1.0
[RightHandPinky1]
21	-80.76699829	-4.885000229	-38.06000137	-1.564865708	-4.524766922	26.84093285	1.0
22	-80.76699829	-4.885000229	-38.06000137	-1.566141248	-4.521045208	26.8439827	1.0
23	-80.76699829	-4.885000229	-38.06000137	-1.573394895	-4.487490654	26.8554821	1.0
[RightHandPinky2]
21	-36	0	0.0009999999311	-0.2127917111	-1.388952017	17.43898582	1.0
22	-36	0	0.0009999999311	-0.2127783746	-1.388954878	17.43861008	1.0
23	-36	0	0.0009999999311	-0.2127850503	-1.388964295	17.43898392	1.0
[RightHandPinky3]
21	-21.14200211	0	0	-0.1918560565	-1.320407629	16.53374672	1.0
22	-21.14200211	0	0	-0.1918405592	-1.320372224	16.53334618	1.0
23	-21.14200211	0	0	-0.1918567419	-1.320398211	16.53373909	1.0
[RightHandPinky4]
21	-19.75699997	0	0	0	0	0	1.0
22	-19.75699997	0	0	0	0	0	1.0
23	-19.75699997	0	0	0	0	0	1.0
[RightHandRing1]
21	-91.03599548	-0.4390000105	-18.65100098	-1.085937977	-2.739645243	21.09569359	1.0
22	-91.03599548	-0.4390000105	-18.65100098	-1.085785389	-2.744708538	21.09333038	1.0
23	-91.03599548	-0.4390000105	-18.65100098	-1.083272219	-2.759270906	21.05521202	1.0
[RightHandRing2]
21	-31.54000092	0	0	-0.3065593541	-1.658435225	20.94510078	1.0
22	-31.54000092	0	0	-0.306566298	-1.658448577	20.94508553	1.0
23	-31.54000092	0	0	-0.3065689802	-1.658439636	20.94509125	1.0
[RightHandRing3]
21	-29.37700081	0	0	-0.2244422287	-1.42553544	17.89369011	1.0
22	-29.37700081	0	0	-0.2244423032	-1.425545692	17.89369965	1.0
23	-29.37700081	0	0	-0.2244413346	-1.425545931	17.89369774	1.0
[RightHandRing4]
21	-26.47500038	0	0	0	0	0	1.0
22	-26.47500038	0	0	0	0	0	1.0
23	-26.47500038	0	0	0	0	0	1.0
[RightHandMiddle1]
21	-95.32500458	0	0	-0.7046525478	-2.247284651	15.06043816	1.0
22	-95.32500458	0	0	-0.7093825936	-2.217092991	15.14041233	1.0
23	-95.32500458	0	0	-0.7120731473	-2.190993309	15.18626785	1.0
[RightHandMiddle2]
21	-36.98199844	0	0	-0.2133134604	-1.390629768	17.44116592	1.0
22	-36.98199844	0	0	-0.2134679258	-1.391104579	17.44721603	1.0
23	-36.98199844	0	0	-0.2135816067	-1.391489267	17.45218658	1.0
[RightHandMiddle3]
21	-29.50900078	0	0	-0.2384900451	-1.470339775	18.44967651	1.0
22	-29.50900078	0	0	-0.2386454493	-1.470812678	18.45590591	1.0
23	-29.50900078	0	0	-0.2387765497	-1.471210122	18.4610424	1.0
[RightHandMiddle4]
21	-28.3390007	0	0.0009999999311	0	0	0	1.0
22	-28.3390007	0	0.0009999999311	0	0	0	1.0
23	-28.3390007	0	0.0009999999311	0	0	0	1.0
[RightHandIndex1]
21	-91.08300018	-5.167999744	22.60099792	0.1649865359	1.172850013	7.554072857	1.0
22	-91.08300018	-5.167999744	22.60099792	0.156581983	1.182389736	7.588404655	1.0
23	-91.08300018	-5.167999744	22.60099792	0.1530861259	1.195334911	7.549507618	1.0
[RightHandIndex2]
21	-36.76399994	0	0	-0.2124578953	-1.387842536	17.40513992	1.0
22	-36.76399994	0	0	-0.212170586	-1.386987686	17.39385414	1.0
23	-36.76399994	0	0	-0.2126438469	-1.388499022	17.41329193	1.0
[RightHandIndex3]
21	-28.83100128	0	0	-0.04573344439	-0.6499158144	8.051001549	1.0
22	-28.83100128	0	0	-0.04560841247	-0.6490167379	8.039731979	1.0
23	-28.83100128	0	0	-0.04583190382	-0.6505653262	8.05915451	1.0
[RightHandIndex4]
21	-23.92700005	0	0	0	0	0	1.0
22	-23.92700005	0	0	0	0	0	1.0
23	-23.92700005	0	0	0	0	0	1.0
[RightHandThumb1]
21	-24.64799881	-15.72700024	26.82600021	-1.658465981	-0.2891423702	-4.221325874	1.0
22	-24.64799881	-15.72700024	26.82600021	-1.658465981	-0.2891423702	-4.221325874	1.0
23	-24.64799881	-15.72700024	26.82600021	-1.658465981	-0.2891423702	-4.221325874	1.0
[RightHandThumb2]
21	-32.29800034	-18.64699936	18.64699936	22.83841324	-22.93970108	-23.93011284	1.0
22	-32.29800034	-18.64699936	18.64699936	22.83947945	-23.17685699	-24.00224495	1.0
23	-32.29800034	-18.64699936	18.64699936	22.79774857	-23.35890007	-24.06052971	1.0
[RightHandThumb3]
21	-26.52600098	-15.31399918	15.31399918	-14.50031281	-6.721696854	-11.37254429	1.0
22	-26.52600098	-15.31399918	15.31399918	-14.49690819	-6.718551636	-11.37334347	1.0
23	-26.52600098	-15.31399918	15.31399918	-14.49350357	-6.713960171	-11.37425613	1.0
[RightHandThumb4]
21	-19.54599953	-11.28499985	11.28499985	0	0	0	1.0
22	-19.54599953	-11.28499985	11.28499985	0	0	0	1.0
23	-19.54599953	-11.28499985	11.28499985	0	0	0	1.0
[LeftUpLeg]
21	82.07800293	-67.51699829	-15.99599934	-11.66368389	35.1547699	4.448953629	1.0
22	82.07800293	-67.51699829	-15.99599934	-12.16510963	34.79955673	4.903285503	1.0
23	82.07800293	-67.51699829	-15.99599934	-12.5105505	34.72618484	5.354189396	1.0
[LeftLeg]
21	0	-443.7049866	2.845999956	17.46196747	6.867891312	10.61584663	1.0
22	0	-443.7049866	2.845999956	17.85521507	5.568754196	10.21332645	1.0
23	0	-443.7049866	2.845999956	18.22610474	1.865403891	8.877573013	1.0
[LeftFoot]
21	0	-444.2789917	-29.8219986	-0.8431081176	-2.873851299	-5.72208643	1.0
22	0	-444.2789917	-29.8219986	-0.9532876015	-7.945065975	-5.775187016	1.0
23	0	-444.2789917	-29.8219986	-1.374474287	-9.011984825	-5.840013504	1.0
[LeftToeBase]
21	0	-87.28699493	107.1060028	-4.92853117	-3.564131839e-05	1.083837674e-06	1.0
22	0	-87.28699493	107.1060028	-4.928528309	-2.436504838e-05	-6.976037525e-07	1.0
23	0	-87.28699493	107.1060028	-4.928526402	8.188709216e-06	2.52923769e-06	1.0
[RightUpLeg]
21	-82.07800293	-67.51699829	-15.99599934	-14.08039665	-7.90223217	4.22557354	1.0
22	-82.07800293	-67.51699829	-15.99599934	-8.664848328	-8.939807892	3.526856422	1.0
23	-82.07800293	-67.51699829	-15.99599934	-5.334259033	-9.918314934	3.187496185	1.0
[RightLeg]
21	0	-443.7049866	2.861999989	25.05770493	1.569321036	-4.967458248	1.0
22	0	-443.7049866	2.861999989	16.84909058	2.185196638	-3.885061502	1.0
23	0	-443.7049866	2.861999989	13.00919914	1.057707667	-3.30822587	1.0
[RightFoot]
21	0	-444.2770081	-29.83799934	0.8892443776	-19.85102463	5.801436901	1.0
22	0	-444.2770081	-29.83799934	-1.370914698	-8.357743263	5.087601185	1.0
23	0	-444.2770081	-29.83799934	-2.978086233	-2.485476732	4.266489983	1.0
[RightToeBase]
21	0	-87.28699493	107.1060028	-7.202599049	2.0099209e-05	-6.285334621e-06	1.0
22	0	-87.28699493	107.1060028	-7.213098049	-0.007285654545	-0.05707900971	1.0
23	0	-87.28699493	107.1060028	-7.276215076	1.459837949e-05	-3.361658116e-07	1.0
[EndOfFile]
